<?xml version="1.0" standalone="no"?><!DOCTYPE svg PUBLIC "-//W3C//DTD SVG 1.1//EN" "http://www.w3.org/Graphics/SVG/1.1/DTD/svg11.dtd"><svg t="1615124640560" class="icon" viewBox="0 0 1024 1024" version="1.1" xmlns="http://www.w3.org/2000/svg" p-id="9388" xmlns:xlink="http://www.w3.org/1999/xlink" width="200" height="200"><defs><style type="text/css"></style></defs><path d="M946.405249 581.036329l-356.407316 312.27212c-21.727861 17.534352-49.297776 28.077475-79.348186 28.077475-29.804816 0-57.152674-10.399861-78.798671-27.663036L75.557348 581.848834c-7.77508-8.93551-12.643971-20.48045-12.643971-33.278941 0-23.308869 15.745612-42.75271 37.08564-48.747237 0 0 5.126764-1.987261 12.599969-1.987261s104.987123 0 104.987123 0L217.586109 172.445514c0-46.799886 35.207873-81.406055 81.867566-81.406055L721.843774 91.039459c46.659693 0 81.867566 34.606169 81.867566 81.406055l0 325.388858 102.985536 0c0.339738 0 0.657986-0.098237 1.000793-0.098237 0.340761 0 0.660032 0.098237 1.001817 0.098237l1.182942 0 0.057305 0.12689c26.925233 1.208525 48.446385 23.306822 48.446385 50.607608C958.385095 560.987714 953.774077 572.213383 946.405249 581.036329zM624.617405 441.08795c18.657942 0 29.647227-14.481829 29.647227-33.196053 0-18.714224-10.988262-31.930223-29.647227-31.930223l-71.856561-0.019443 74.242911-74.613348c13.291724-13.32447 13.291724-34.932604 0-48.264237-13.284561-13.331633-34.836413-13.331633-48.120974 0l-68.806085 69.012793-68.533886-68.74264c-13.292748-13.331633-34.836413-13.331633-48.121997 0-13.292748 13.331633-13.292748 34.94079 0 48.263214l74.150814 74.386174-70.889537-0.023536c-18.658965 0-29.647227 13.216-29.647227 31.930223 0 18.714224 10.988262 33.196053 29.647227 33.196053l73.264631 0 0 40.703027-73.264631 0c-18.658965 0-29.647227 12.120039-29.647227 30.848589 0 18.714224 10.988262 34.275641 29.647227 34.275641l73.264631 0 0 48.842405c0 23.388686 17.370623 40.703027 40.704051 40.703027 23.325241 0 40.702004-17.314341 40.702004-40.703027l0-48.842405 75.360362 0c18.657942 0 27.552519-12.491499 27.552519-31.205723 0-24.347524-12.986779-33.918507-31.645744-33.918507l-71.267137 0 0-40.703027L624.617405 441.086927z" p-id="9389"></path></svg>