<?xml version="1.0" standalone="no"?><!DOCTYPE svg PUBLIC "-//W3C//DTD SVG 1.1//EN" "http://www.w3.org/Graphics/SVG/1.1/DTD/svg11.dtd"><svg t="1615128522618" class="icon" viewBox="0 0 1024 1024" version="1.1" xmlns="http://www.w3.org/2000/svg" p-id="15757" xmlns:xlink="http://www.w3.org/1999/xlink" width="200" height="200"><defs><style type="text/css"></style></defs><path d="M808.004267 285.070222 659.911111 285.070222 659.911111 261.688889c0-37.649067-30.6176-68.266667-68.266667-68.266667L443.733333 193.422222c-37.649067 0-68.266667 30.6176-68.266667 68.266667l0 23.381333L227.7376 285.070222c-50.267022 0-91.022222 40.7552-91.022222 91.022222l0 357.330489c0 50.267022 40.7552 91.022222 91.022222 91.022222l580.266667 0c50.267022 0 91.022222-40.7552 91.022222-91.022222L899.026489 376.092444C899.026489 325.814044 858.271289 285.070222 808.004267 285.070222zM420.977778 261.688889c0-12.549689 10.205867-22.755556 22.755556-22.755556l147.911111 0c12.549689 0 22.755556 10.205867 22.755556 22.755556l0 23.381333L420.977778 285.070222 420.977778 261.688889zM602.737778 493.9776c-11.992178 3.982222-24.814933-2.446222-28.797156-14.358756-4.869689-14.5408-22.471111-31.527822-56.069689-31.527822-27.591111 0-43.918222 18.454756-45.806933 36.681956-2.3552 22.766933 16.509156 40.584533 50.4832 47.695644 69.677511 14.597689 90.100622 61.348978 86.4256 96.938667-3.822933 36.852622-31.721244 66.070756-68.334933 74.774756l0 25.270044c0 12.561067-10.194489 22.755556-22.755556 22.755556s-22.755556-10.194489-22.755556-22.755556l0-24.484978c-43.451733-7.486578-68.152889-35.828622-76.470044-60.654933-3.9936-11.912533 2.434844-24.814933 14.358756-28.797156 11.901156-4.004978 24.814933 2.446222 28.797156 14.358756 4.869689 14.5408 22.482489 31.527822 56.069689 31.527822 27.591111 0 43.918222-18.454756 45.806933-36.681956 2.3552-22.766933-16.509156-40.584533-50.4832-47.695644-69.677511-14.597689-90.100622-61.348978-86.4256-96.938667 3.822933-36.852622 31.721244-66.070756 68.334933-74.774756l0-25.270044c0-12.561067 10.194489-22.755556 22.755556-22.755556s22.755556 10.194489 22.755556 22.755556l0 24.484978c43.463111 7.486578 68.164267 35.828622 76.470044 60.643556C621.078756 477.104356 614.638933 489.984 602.737778 493.9776z" p-id="15758"></path></svg>