<?xml version="1.0" standalone="no"?><!DOCTYPE svg PUBLIC "-//W3C//DTD SVG 1.1//EN" "http://www.w3.org/Graphics/SVG/1.1/DTD/svg11.dtd"><svg t="1615198329681" class="icon" viewBox="0 0 1024 1024" version="1.1" xmlns="http://www.w3.org/2000/svg" p-id="18307" xmlns:xlink="http://www.w3.org/1999/xlink" width="200" height="200"><defs><style type="text/css"></style></defs><path d="M877.37813 399.8702c0 48.708352-38.879496 73.097832-73.096808 73.097832L609.354793 472.968032c-44.735877 0-73.145927-33.883715-73.145927-78.999239l0.048095-189.026144c0-45.043892 28.362978-73.097832 73.098855-73.097832l194.927551 0c44.781926 0.047072 73.096808 28.053939 73.096808 73.097832L877.380176 399.8702zM365.694331 521.699919 219.498668 521.699919c-44.734854 0-73.098855 33.883715-73.098855 78.926584l0 189.097776c0 45.044916 28.364001 73.098855 73.098855 73.098855l194.927551 0c34.311457 0 73.097832-28.077475 73.097832-73.098855L487.524051 594.796728c0-45.089941-28.364001-73.096808-73.097832-73.096808L365.694331 521.699919zM615.230618 521.676383c-45.067428 0-78.974679 28.362978-78.974679 73.121368l0 194.927551c0 50.755987 30.17116 73.098855 78.904071 73.098855l189.121312 0c45.067428 0 73.096808-28.339442 73.096808-73.098855L877.37813 594.796728c0.048095-44.805462-28.02938-73.096808-73.096808-73.096808L615.230618 521.676383zM219.498668 131.844817c-45.067428 0-73.098855 28.339442-73.098855 73.097832L146.399813 399.8702c0 44.948725 28.077475 73.097832 73.098855 73.097832l194.927551 0c45.067428 0 73.097832-28.339442 73.097832-73.097832L487.524051 204.942649c0.048095-44.686758-28.030403-73.097832-73.097832-73.097832L219.498668 131.844817z" p-id="18308"></path></svg>