<?xml version="1.0" standalone="no"?><!DOCTYPE svg PUBLIC "-//W3C//DTD SVG 1.1//EN" "http://www.w3.org/Graphics/SVG/1.1/DTD/svg11.dtd"><svg t="1615198380048" class="icon" viewBox="0 0 1026 1024" version="1.1" xmlns="http://www.w3.org/2000/svg" p-id="21627" xmlns:xlink="http://www.w3.org/1999/xlink" width="200.390625" height="200"><defs><style type="text/css"></style></defs><path d="M984.077973 119.766082H275.461988a39.922027 39.922027 0 0 1-39.922027-39.922027V39.922027a39.922027 39.922027 0 0 1 39.922027-39.922027h708.615985a39.922027 39.922027 0 0 1 39.922027 39.922027v39.922028a39.922027 39.922027 0 0 1-39.922027 39.922027z m0 784.467836H750.823548a451.009123 451.009123 0 0 1-145.665497 119.766082H984.077973a39.922027 39.922027 0 0 0 39.922027-39.922027v-39.922028a39.922027 39.922027 0 0 0-39.922027-39.922027z m0-226.058479H845.18924a446.388148 446.388148 0 0 1-31.448577 119.766081H984.077973a39.922027 39.922027 0 0 0 39.922027-39.922027v-39.922027a39.922027 39.922027 0 0 0-39.922027-39.922027z m0-226.05848H813.940273a446.208499 446.208499 0 0 1 31.31883 119.766082H984.077973a39.922027 39.922027 0 0 0 39.922027-39.922027v-39.922028a39.922027 39.922027 0 0 0-39.922027-39.922027z m0-226.058479H606.12616a451.218713 451.218713 0 0 1 145.096608 119.766081H984.077973a39.922027 39.922027 0 0 0 39.922027-39.922027v-39.922027a39.922027 39.922027 0 0 0-39.922027-39.922027zM399.220273 225.559454C178.740897 225.559454 0 404.300351 0 624.779727s178.740897 399.220273 399.220273 399.220273 399.220273-178.740897 399.220273-399.220273-178.740897-399.220273-399.220273-399.220273z m125.754386 393.930604V655.719298h-90.623002l-0.548928 0.548928v45.561014H524.974659v36.22924h-91.122027V820.397661h-69.164913v-82.339181h-90.623002v-36.22924h90.5731v-45.561014l-0.548928-0.548928h-90.024172v-36.22924h69.713841l-105.394153-191.0269H316.382066l82.838207 165.22729 82.888109-165.22729h77.947758l-105.394152 191.0269z" p-id="21628"></path></svg>