<?xml version="1.0" standalone="no"?><!DOCTYPE svg PUBLIC "-//W3C//DTD SVG 1.1//EN" "http://www.w3.org/Graphics/SVG/1.1/DTD/svg11.dtd"><svg t="1615126610618" class="icon" viewBox="0 0 1024 1024" version="1.1" xmlns="http://www.w3.org/2000/svg" p-id="10471" xmlns:xlink="http://www.w3.org/1999/xlink" width="200" height="200"><defs><style type="text/css"></style></defs><path d="M43.394397 9.266387c-9.256407 4.628203-22.562492 15.620187-28.926271 24.298068C2.897617 48.606116 2.897617 59.598099 1.162041 504.484159c-1.735576 503.317129-2.892627 484.804315 34.711526 507.945332 18.512814 10.991983 28.347746 11.570509 300.833226 11.570509h281.163362l-37.025628-37.025628c-87.935866-87.935866-106.44868-213.475886-48.596137-330.916549C569.852544 578.535415 654.895783 511.426464 739.939021 491.7566c63.637798-15.041661 145.209884-3.471153 227.939022 31.818898 9.256407 4.049678 9.834932-9.256407 9.834932-229.674597 0-215.211462-0.578525-234.881327-10.413457-253.394141-22.562492-42.232357 0-40.49678-478.440535-40.49678C118.024179 0.00998 58.436059 1.16703 43.394397 9.266387z m709.85071 260.914971c12.72756 11.570509 13.306085 32.397424 1.15705 44.546458-8.099356 8.099356-39.918255 9.256407-266.700225 9.256407-231.9887 0-259.179395-1.157051-269.014328-9.834932-12.72756-11.570509-13.306085-29.504797-0.578525-43.389408C226.78696 260.924951 242.985673 260.346425 484.809305 260.346425c231.410174 0 258.60087 1.157051 268.435802 9.834933z m-260.336446 266.1217c12.72756 10.991983 13.306085 30.083323 2.314101 45.703509-7.520831 10.413458-17.355763 10.991983-129.011172 12.72756-115.705087 1.735576-121.490341 1.157051-136.532002-10.413458-18.512814-14.463136-19.669865-30.661848-4.049678-46.282035 10.991983-10.991983 19.091339-11.570509 134.217901-11.570508 105.870155 0 123.804443 1.157051 133.06085 9.834932z" p-id="10472"></path><path d="M733.575242 557.708499c-68.844527 18.512814-133.06085 79.257985-155.623342 146.945461-9.834932 28.926272-11.570509 46.86056-9.834933 86.778815 2.314102 61.323696 19.091339 101.820477 59.58812 145.209884 35.290052 37.604153 68.266001 56.695493 119.17624 67.687476 118.597714 27.190695 236.616903-46.282035 269.014327-166.615325 19.669865-75.786832 0.578525-152.730715-53.22434-212.318835-56.695493-63.059272-146.945461-89.671442-229.096072-67.687476z m29.504797 131.903799l31.818899 56.695493 31.818899-57.852543c31.818899-56.695493 32.97595-57.852544 53.802865-57.852544h20.826916l-39.918255 70.580103-39.918255 71.158629 33.554475 2.892627c30.661848 2.892627 32.97595 4.049678 32.97595 17.355763 0 13.88461-1.735576 14.463136-35.868577 16.198712-31.240374 1.735576-36.447102 3.471153-36.447102 12.72756s5.206729 10.991983 36.447102 12.727559 35.868577 2.892627 35.868577 13.306085-4.628203 11.570509-35.868577 13.306085l-36.447102 1.735577V896.724404c0 31.818899-1.157051 34.711526-13.884611 38.182679-21.983967 5.206729-26.61217-1.157051-26.61217-38.761204v-34.133001H737.62492c-36.447102 0-37.604153-0.578525-37.604154-14.463136s1.157051-14.463136 37.604154-14.463136c33.554475 0 37.604153-1.157051 37.604153-11.570508 0-10.413458-4.049678-11.570509-38.182679-11.570509h-37.604153l1.735576-16.198712c1.735576-14.463136 3.471153-15.620187 34.711526-17.355763l32.97595-1.735577-16.198712-27.190695c-8.677882-15.041661-27.190695-47.439086-40.49678-72.315679l-24.876594-45.124984 21.983966 1.735576c21.983967 1.735576 23.141017 3.471153 53.802866 57.852543z" p-id="10473"></path></svg>