<?xml version="1.0" standalone="no"?><!DOCTYPE svg PUBLIC "-//W3C//DTD SVG 1.1//EN" "http://www.w3.org/Graphics/SVG/1.1/DTD/svg11.dtd"><svg t="1615124506169" class="icon" viewBox="0 0 1024 1024" version="1.1" xmlns="http://www.w3.org/2000/svg" p-id="8616" xmlns:xlink="http://www.w3.org/1999/xlink" width="200" height="200"><defs><style type="text/css"></style></defs><path d="M258.844444 807.822222c-8.738133 0-17.464889-3.333689-24.132267-10.001067-13.334756-13.323378-13.334756-34.941156 0-48.264533l534.755556-534.755556c13.334756-13.334756 34.929778-13.334756 48.264533 0 13.334756 13.323378 13.334756 34.941156 0 48.264533l-534.755556 534.755556C276.309333 804.488533 267.582578 807.822222 258.844444 807.822222zM856.177778 676.977778c0-87.836444-71.452444-159.288889-159.288889-159.288889s-159.288889 71.452444-159.288889 159.288889 71.452444 159.288889 159.288889 159.288889S856.177778 764.814222 856.177778 676.977778zM787.911111 676.977778c0 50.187378-40.834844 91.022222-91.022222 91.022222s-91.022222-40.834844-91.022222-91.022222 40.834844-91.022222 91.022222-91.022222S787.911111 626.7904 787.911111 676.977778zM514.844444 335.644444c0-87.836444-71.452444-159.288889-159.288889-159.288889s-159.288889 71.452444-159.288889 159.288889 71.452444 159.288889 159.288889 159.288889S514.844444 423.480889 514.844444 335.644444zM446.577778 335.644444c0 50.187378-40.834844 91.022222-91.022222 91.022222s-91.022222-40.834844-91.022222-91.022222 40.834844-91.022222 91.022222-91.022222S446.577778 285.457067 446.577778 335.644444z" p-id="8617"></path></svg>